<svg width="12" height="14" viewBox="0 0 12 14" fill="none" xmlns="http://www.w3.org/2000/svg">
<path d="M1.21556 7.54882C1.24682 7.51756 1.28921 7.5 1.33341 7.5C1.37762 7.5 1.42001 7.51756 1.45127 7.54882C1.48252 7.58007 1.50008 7.62246 1.50008 7.66667V13C1.50008 13.0442 1.48252 13.0866 1.45127 13.1179C1.42001 13.1491 1.37762 13.1667 1.33341 13.1667C1.28921 13.1667 1.24682 13.1491 1.21556 13.1179C1.18431 13.0866 1.16675 13.0442 1.16675 13V7.66667C1.16675 7.62246 1.18431 7.58007 1.21556 7.54882ZM4.5489 0.882149C4.58015 0.850893 4.62255 0.833333 4.66675 0.833333C4.71095 0.833333 4.75334 0.850892 4.7846 0.882149C4.81586 0.913405 4.83341 0.955797 4.83341 1V13C4.83341 13.0442 4.81585 13.0866 4.7846 13.1179C4.75334 13.1491 4.71095 13.1667 4.66675 13.1667C4.62254 13.1667 4.58015 13.1491 4.5489 13.1179C4.51764 13.0866 4.50008 13.0442 4.50008 13V1C4.50008 0.955797 4.51764 0.913405 4.5489 0.882149ZM11.2156 10.2155C11.2468 10.1842 11.2892 10.1667 11.3334 10.1667C11.3776 10.1667 11.42 10.1842 11.4513 10.2155C11.4825 10.2467 11.5001 10.2891 11.5001 10.3333V13C11.5001 13.0442 11.4825 13.0866 11.4513 13.1179C11.42 13.1491 11.3776 13.1667 11.3334 13.1667C11.2892 13.1667 11.2468 13.1491 11.2156 13.1179C11.1843 13.0866 11.1667 13.0442 11.1667 13V10.3333C11.1667 10.2891 11.1843 10.2467 11.2156 10.2155ZM7.88223 4.88215C7.91349 4.85089 7.95588 4.83333 8.00008 4.83333C8.04428 4.83333 8.08668 4.85089 8.11793 4.88215C8.14919 4.91341 8.16675 4.9558 8.16675 5V13C8.16675 13.0442 8.14919 13.0866 8.11793 13.1179L8.47149 13.4714L8.11793 13.1179C8.08668 13.1491 8.04429 13.1667 8.00008 13.1667C7.95588 13.1667 7.91349 13.1491 7.88223 13.1179C7.85097 13.0866 7.83341 13.0442 7.83341 13V5C7.83341 4.9558 7.85097 4.91341 7.88223 4.88215Z" fill="#101828" stroke="#667085"/>
</svg>
