<svg width="23" height="23" viewBox="0 0 23 23" fill="none" xmlns="http://www.w3.org/2000/svg">
<path d="M8.61855 0.921371L8.00636 2.91797L9.30123 3.22561L10.2153 2.40529L8.61859 0.921371H8.61855ZM14.522 0.924325L12.9926 2.34665L13.9609 3.26072L15.1621 3.00726L14.522 0.924325ZM11.4779 3.70893C10.8054 3.71937 10.1368 3.81286 9.48723 3.98728C5.12411 5.15634 2.52761 9.65386 3.69677 14.017C4.0532 15.3473 4.71972 16.513 5.59661 17.458C5.60486 17.4698 5.61325 17.4814 5.62155 17.4932L5.62595 17.4902C7.62611 19.6227 10.7072 20.6148 13.725 19.8061C18.0882 18.637 20.6847 14.1411 19.5156 9.77789C18.5657 6.23268 15.4189 3.855 11.9321 3.71484C11.7812 3.70875 11.6299 3.70659 11.4779 3.70893ZM3.50636 3.87014L3.97356 5.90625L5.24941 5.52393L5.63027 4.35792L3.50636 3.87009V3.87014ZM19.6328 3.8789L17.5951 4.34625L17.9775 5.62209L19.1435 6.0029L19.6328 3.8789ZM11.6303 4.58203C11.7207 4.58222 11.8114 4.58437 11.9013 4.58789C15.0173 4.71023 17.8186 6.83132 18.6689 10.0049C19.7155 13.9108 17.4053 17.9144 13.4995 18.9609C10.8142 19.6805 8.08333 18.8125 6.29828 16.9306L6.29688 16.9292C5.93491 16.4036 5.64222 15.8291 5.43409 15.2271C4.28692 11.9092 5.93059 8.02247 9.32177 6.85987C12.1786 5.88051 15.5177 7.28292 16.504 10.1763C17.3304 12.6009 16.124 15.4395 13.6475 16.2759C11.5837 16.9728 9.17514 15.9542 8.47516 13.8676C7.89545 12.1398 8.75795 10.1198 10.52 9.53461C11.9691 9.05334 13.6584 9.77057 14.1397 11.2309C14.5161 12.3736 13.981 13.7028 12.8681 14.1577C13.3731 13.6712 13.6078 12.9306 13.4146 12.2095C13.1673 11.2867 12.2983 10.6879 11.3784 10.7417C11.247 10.7494 11.1132 10.7693 10.9814 10.8047C9.92697 11.0872 9.29556 12.1833 9.57812 13.2378C9.61014 13.3573 9.6533 13.4735 9.70703 13.5849C9.70806 13.5874 9.70891 13.5899 9.70998 13.5923C9.71327 13.5991 9.71678 13.6059 9.7202 13.6127C10.2814 14.8647 11.6831 15.4702 12.9956 15.0424C14.6949 14.4886 15.5101 12.5909 14.9717 10.957C14.3289 9.00632 12.1319 8.07529 10.2432 8.70257C7.99525 9.44915 6.91647 11.9768 7.64458 14.1474C8.50834 16.7221 11.425 17.9505 13.9288 17.1049C16.8891 16.1052 18.3105 12.7612 17.3331 9.89348C16.3972 7.14773 13.6822 5.56739 10.9288 5.67768C10.2846 5.70309 9.6476 5.82199 9.03766 6.03065C6.40586 6.933 4.70538 9.25096 4.29297 11.8242C4.32119 8.62036 6.46591 5.70436 9.71434 4.83393C10.3551 4.66223 10.9978 4.58072 11.6304 4.58198L11.6303 4.58203ZM2.63477 8.34084L0.551734 8.97951L1.97411 10.5103L2.88817 9.54196L2.63481 8.34079L2.63477 8.34084ZM20.5835 8.3789L20.276 9.67382L21.0963 10.5879L22.5816 8.99118L20.5835 8.3789ZM11.5293 11.6133C12.0087 11.6249 12.4367 11.9466 12.5679 12.4365C12.728 13.0337 12.3813 13.6359 11.7843 13.7959C11.2618 13.9359 10.7349 13.6876 10.504 13.2231C10.4818 13.1698 10.4617 13.1155 10.444 13.0605L10.4381 13.0619C10.4328 13.045 10.4279 13.0279 10.4234 13.0108C10.2635 12.4136 10.6115 11.8114 11.2086 11.6514C11.2819 11.6318 11.357 11.6195 11.4327 11.6147C11.4651 11.6128 11.4974 11.6126 11.5294 11.6133L11.5293 11.6133ZM2.03261 13.2877L0.548828 14.8828L2.54542 15.4966L2.85292 14.2002L2.03261 13.2876V13.2877ZM21.1548 13.3652L20.2407 14.3335L20.4941 15.5347L22.5771 14.8946L21.1547 13.3653L21.1548 13.3652ZM3.98523 17.8711L3.49745 19.9966L5.5337 19.5292L5.15134 18.2534L3.98523 17.8711ZM19.1552 17.9692L17.8793 18.3501L17.5 19.5175L19.624 20.0053L19.1552 17.9692H19.1552ZM9.16937 20.6133L7.96816 20.8667L8.60683 22.9497L10.1376 21.5273L9.16937 20.6133ZM13.8275 20.6484L12.9135 21.4687L14.5102 22.9541L15.1239 20.9561L13.8275 20.6484H13.8275Z" fill="#1570EF"/>
</svg>
