<svg width="19" height="19" viewBox="0 0 19 19" fill="none" xmlns="http://www.w3.org/2000/svg">
<path d="M6.07861 1.85748H5.89111C5.99424 1.85748 6.07861 1.77311 6.07861 1.66998V1.85748H13.2036V1.66998C13.2036 1.77311 13.288 1.85748 13.3911 1.85748H13.2036V3.54498H14.8911V1.66998C14.8911 0.842639 14.2185 0.169983 13.3911 0.169983H5.89111C5.06377 0.169983 4.39111 0.842639 4.39111 1.66998V3.54498H6.07861V1.85748ZM17.8911 3.54498H1.39111C0.97627 3.54498 0.641113 3.88014 0.641113 4.29498V5.04498C0.641113 5.14811 0.725488 5.23248 0.828613 5.23248H2.24424L2.82314 17.4903C2.86064 18.2895 3.52158 18.92 4.3208 18.92H14.9614C15.763 18.92 16.4216 18.2919 16.4591 17.4903L17.038 5.23248H18.4536C18.5567 5.23248 18.6411 5.14811 18.6411 5.04498V4.29498C18.6411 3.88014 18.306 3.54498 17.8911 3.54498ZM14.781 17.2325H4.50127L3.93408 5.23248H15.3481L14.781 17.2325Z" fill="#E50000"/>
</svg>
